<?xml version="1.0" standalone="no"?>
<!DOCTYPE svg PUBLIC "-//W3C//DTD SVG 20010904//EN"
 "http://www.w3.org/TR/2001/REC-SVG-20010904/DTD/svg10.dtd">
<svg version="1.0" xmlns="http://www.w3.org/2000/svg"
 width="512.000000pt" height="512.000000pt" viewBox="0 0 512.000000 512.000000"
 preserveAspectRatio="xMidYMid meet">
<metadata>
Created by potrace 1.11, written by Peter Selinger 2001-2013
</metadata>
<g transform="translate(0.000000,512.000000) scale(0.100000,-0.100000)"
fill="#000000" stroke="none">
<path d="M0 2560 l0 -2560 2560 0 2560 0 0 2560 0 2560 -2560 0 -2560 0 0
-2560z m1006 1475 c78 -32 111 -84 163 -250 16 -55 123 -498 237 -985 114
-487 210 -888 214 -893 3 -4 118 390 254 875 137 486 263 925 281 975 53 148
135 241 248 279 70 24 231 25 308 1 65 -20 146 -86 191 -157 40 -63 67 -152
338 -1106 260 -917 249 -879 254 -873 3 2 101 418 220 924 119 506 227 956
241 1000 31 100 82 169 150 204 66 35 195 37 266 5 107 -49 169 -141 169 -249
0 -90 -16 -157 -305 -1270 -295 -1142 -335 -1285 -371 -1357 -36 -71 -97 -133
-163 -165 -51 -26 -66 -28 -171 -28 -139 0 -191 17 -264 84 -101 95 -96 79
-442 1303 -142 505 -261 918 -264 918 -3 0 -108 -361 -234 -802 -264 -924
-336 -1171 -365 -1249 -46 -123 -134 -212 -240 -243 -70 -21 -192 -20 -262 0
-142 42 -212 141 -283 400 -32 120 -503 1935 -560 2160 -34 133 -48 238 -40
291 14 95 102 191 201 219 60 17 175 12 229 -11z"/>
</g>
</svg>
